<?xml version="1.0" standalone="no"?>
<!DOCTYPE svg PUBLIC "-//W3C//DTD SVG 20010904//EN"
 "http://www.w3.org/TR/2001/REC-SVG-20010904/DTD/svg10.dtd">
<svg version="1.0" xmlns="http://www.w3.org/2000/svg"
 width="460.000000pt" height="602.000000pt" viewBox="0 0 460.000000 602.000000"
 preserveAspectRatio="xMidYMid meet">

<g transform="translate(0.000000,602.000000) scale(0.100000,-0.100000)"
fill="#000000" stroke="none">
<path d="M2255 5975 c-204 -37 -283 -57 -463 -122 -153 -54 -233 -92 -372
-174 -201 -119 -318 -225 -421 -383 l-39 -59 0 -111 c0 -114 -18 -212 -42
-227 -7 -5 -214 -9 -460 -9 l-448 0 0 -2010 0 -2010 466 0 467 0 -7 -46 c-6
-43 -3 -50 35 -98 78 -98 285 -309 393 -402 265 -227 532 -324 893 -324 271 0
453 60 662 218 108 82 309 317 289 338 -3 2 -29 -22 -59 -53 -174 -185 -368
-324 -526 -378 -197 -66 -418 -79 -613 -36 -58 13 -109 27 -113 31 -5 4 16 15
47 24 42 12 60 23 68 41 8 18 14 22 24 14 7 -5 27 -11 46 -12 18 -2 43 -8 55
-15 12 -7 31 -12 42 -12 25 0 45 32 29 48 -8 8 -7 13 7 18 11 5 21 1 27 -9 11
-21 48 -22 74 -2 22 17 60 20 69 5 9 -15 81 -50 102 -50 29 0 192 83 198 101
3 10 13 15 23 13 25 -7 156 64 247 133 217 164 572 589 720 861 15 28 29 51
31 49 2 -1 -4 -83 -11 -182 -20 -250 -22 -238 23 -169 22 33 53 71 71 84 81
63 104 87 152 158 28 42 89 154 135 249 69 139 93 179 125 205 40 32 115 140
164 237 15 30 51 127 80 215 30 89 70 206 90 261 34 94 36 105 31 190 -3 50
-12 122 -21 160 -20 85 -15 157 22 304 24 98 25 113 19 255 -4 83 -6 183 -4
221 2 39 3 210 3 380 l0 310 -27 55 c-16 30 -46 87 -68 125 -21 39 -58 126
-81 195 -69 209 -100 263 -311 543 -119 157 -149 185 -273 260 -33 19 -89 61
-125 92 -142 124 -333 230 -475 264 -117 28 -280 61 -312 62 l-28 1 30 8 c17
4 59 8 95 10 116 3 114 13 -16 54 -165 53 -250 67 -348 56 -43 -5 -86 -12 -96
-15 -27 -8 -190 -22 -189 -15 0 3 27 29 60 58 70 62 79 61 -166 17z m-959
-1246 c34 -10 58 -10 129 1 65 10 94 11 114 3 14 -6 55 -23 90 -38 86 -36 131
-35 292 10 160 44 191 43 361 -14 63 -21 157 -46 209 -56 195 -36 273 -56 402
-104 165 -61 252 -87 342 -100 100 -15 172 -38 196 -64 39 -41 98 -179 118
-277 11 -53 33 -132 50 -175 16 -44 55 -147 86 -230 l57 -150 9 -170 c5 -93
14 -242 20 -330 20 -280 22 -415 9 -586 -11 -146 -10 -173 4 -228 22 -84 20
-125 -10 -319 -39 -252 -87 -429 -154 -562 -74 -146 -270 -408 -430 -574 -128
-133 -298 -280 -373 -322 l-55 -32 -6 37 c-10 67 -61 109 -73 61 -3 -11 -12
-20 -20 -20 -8 0 -26 9 -40 20 -39 31 -53 26 -50 -18 2 -34 0 -37 -25 -40 -18
-2 -28 1 -28 10 0 7 -10 24 -21 38 l-20 25 6 -57 6 -58 -38 16 c-21 9 -46 23
-55 31 -16 14 -18 14 -24 -1 -3 -9 -4 -23 0 -31 3 -8 3 -22 0 -30 -8 -19 -44
-20 -44 -1 0 8 -10 27 -23 41 l-22 27 -40 -32 c-85 -68 -127 -80 -248 -70
-102 8 -133 28 -143 92 -5 31 -9 36 -20 27 -8 -6 -19 -29 -25 -51 -10 -38 -11
-39 -29 -23 -10 9 -20 27 -22 39 -2 17 -9 21 -34 19 -25 -2 -33 3 -43 23 -9
21 -17 25 -37 21 -18 -3 -28 1 -35 15 -13 23 -26 14 -31 -22 -4 -25 -4 -24
-21 8 -16 29 -21 32 -34 20 -12 -10 -14 -25 -10 -71 6 -67 18 -86 51 -80 19 4
25 0 30 -21 8 -33 46 -58 93 -59 36 -2 37 -3 37 -41 1 -24 7 -41 16 -46 61
-29 75 -37 72 -45 -12 -36 -230 96 -407 245 -88 75 -361 350 -413 417 l-34 43
609 2 608 3 6 120 c4 66 10 132 14 146 4 16 3 29 -4 33 -7 5 -11 66 -11 182
l0 174 28 0 c15 0 74 12 132 26 72 17 146 27 235 30 l130 6 -173 -87 c-133
-66 -172 -90 -170 -103 5 -23 61 -18 151 13 85 30 157 71 244 139 37 29 83 61
101 70 58 30 33 56 -55 56 -35 0 -135 14 -221 31 -180 36 -230 35 -358 -5
l-80 -26 -70 20 c-58 17 -99 20 -267 20 l-199 0 7 63 c3 34 8 74 11 90 3 15 1
27 -5 27 -20 0 -44 -65 -45 -122 -1 -57 -1 -58 -30 -58 l-29 0 6 66 c6 57 4
64 -8 54 -8 -6 -17 -20 -20 -31 -4 -13 -16 -19 -36 -19 -17 0 -39 -5 -50 -10
-13 -7 -25 -7 -38 -1 -20 11 -41 -6 -54 -42 -6 -16 -22 -17 -199 -15 l-193 3
2 1370 c1 754 2 1418 2 1476 l1 107 41 -9 c37 -9 47 -6 98 22 31 18 67 39 81
46 28 15 81 12 146 -8z m3168 -2001 c3 -24 9 -90 12 -148 l7 -106 -63 -189
c-72 -218 -91 -261 -120 -270 -39 -12 -158 -85 -164 -100 -7 -19 3 -45 18 -45
6 0 35 18 65 40 85 64 89 57 25 -46 -108 -174 -269 -247 -379 -173 -20 13 -38
35 -42 49 -8 32 33 244 58 295 10 22 34 59 53 82 45 55 96 188 96 249 0 45 1
46 19 30 28 -25 69 -107 76 -152 10 -62 -7 -91 -69 -118 -55 -24 -76 -48 -76
-85 0 -33 18 -35 92 -10 82 28 100 51 118 147 20 114 -4 198 -85 299 l-26 31
53 25 c29 13 74 43 100 66 46 41 47 42 59 20 6 -12 24 -72 39 -133 21 -86 31
-112 45 -115 17 -3 18 4 12 86 -7 92 -39 216 -63 244 -12 13 -11 18 1 36 15
21 38 28 101 32 30 1 32 -1 38 -41z m-2794 -2308 c8 -16 8 -18 -4 -14 -17 6
-30 34 -16 34 5 0 14 -9 20 -20z m1020 -101 c0 -5 -7 -6 -15 -3 -8 4 -17 -1
-21 -9 -3 -9 -12 -18 -21 -21 -12 -5 -14 -1 -8 21 11 46 25 56 46 37 11 -10
19 -21 19 -25z m-210 -17 c0 -5 11 -14 25 -20 l26 -12 -37 -32 c-35 -31 -37
-31 -50 -13 -7 11 -18 25 -24 32 -15 17 -13 21 18 37 31 18 42 19 42 8z m-354
-52 c69 -31 76 -50 20 -50 -31 0 -46 11 -85 63 -18 23 -11 22 65 -13z"/>
<path d="M2510 3853 c-23 -9 -70 -54 -95 -93 -30 -48 -37 -83 -21 -105 13 -18
15 -18 50 13 42 37 86 47 47 11 -12 -12 -20 -24 -17 -27 3 -3 37 1 74 8 60 11
72 11 100 -4 17 -9 50 -16 74 -16 65 0 291 -27 340 -40 23 -7 74 -28 113 -47
38 -20 94 -44 122 -54 29 -10 72 -31 95 -47 54 -36 71 -42 89 -31 16 9 3 37
-58 122 -37 50 -189 159 -276 196 -84 36 -277 93 -366 107 -84 14 -241 18
-271 7z m-20 -88 c-7 -9 -15 -13 -18 -10 -3 2 1 11 8 20 7 9 15 13 18 10 3 -2
-1 -11 -8 -20z"/>
<path d="M1148 3820 c-38 -4 -97 -18 -133 -30 -75 -25 -82 -41 -40 -96 31 -40
31 -48 3 -101 -36 -67 -21 -73 115 -44 75 16 157 26 247 29 74 2 140 8 145 14
7 6 1 16 -15 28 -33 26 -14 25 29 -1 18 -11 43 -19 55 -17 30 4 33 42 4 63
l-23 17 23 -7 c18 -5 22 -3 22 17 0 40 -38 88 -84 109 -52 23 -240 33 -348 19z"/>
<path d="M1570 3810 c0 -6 9 -43 20 -83 22 -79 45 -107 68 -83 20 20 9 71 -28
129 -27 42 -60 63 -60 37z"/>
<path d="M1734 3405 c-3 -8 8 -39 24 -69 95 -168 81 -308 -62 -627 -35 -77
-78 -161 -97 -187 -63 -87 -89 -143 -89 -198 0 -70 41 -148 99 -189 36 -25 52
-30 104 -30 49 0 62 3 65 16 2 12 -10 20 -44 29 -83 23 -144 103 -144 188 0
33 15 58 77 128 41 48 60 80 82 145 16 46 48 133 71 193 57 149 80 245 80 336
0 105 -21 161 -85 227 -53 55 -72 64 -81 38z"/>
<path d="M2752 3385 c-90 -25 -216 -94 -200 -110 3 -4 35 7 70 23 35 17 85 37
111 46 123 41 324 -2 473 -101 30 -20 57 -34 60 -31 14 15 -64 80 -139 116
-125 61 -277 84 -375 57z"/>
<path d="M1209 3295 c-80 -21 -139 -58 -195 -118 -46 -50 -67 -87 -49 -87 3 0
39 27 80 59 110 88 162 105 315 106 69 0 140 -2 157 -5 55 -8 38 14 -28 37
-74 26 -204 30 -280 8z"/>
<path d="M2640 3212 c-114 -39 -138 -51 -146 -75 -9 -30 6 -37 99 -47 47 -6
118 -17 157 -25 104 -22 304 -30 381 -16 58 11 68 10 109 -8 47 -21 110 -28
110 -12 0 16 -83 82 -140 111 -30 15 -100 42 -155 60 -83 27 -120 33 -215 36
-106 4 -121 2 -200 -24z m110 -49 c0 -10 3 -29 7 -42 6 -23 4 -24 -33 -19 -21
3 -55 12 -74 20 l-35 15 55 21 c68 26 80 27 80 5z m323 -48 c0 -6 -7 -11 -16
-13 -12 -3 -15 1 -11 13 7 17 25 17 27 0z"/>
<path d="M1295 3131 c-117 -32 -183 -61 -263 -114 -70 -47 -77 -55 -80 -88 -2
-28 1 -37 15 -41 31 -8 81 11 102 38 22 28 15 28 144 8 63 -9 147 9 271 57 55
22 125 44 155 49 30 5 61 16 69 23 12 12 10 17 -13 35 -42 33 -90 44 -215 48
-91 3 -129 0 -185 -15z m240 -53 l40 -11 -54 -24 c-29 -13 -55 -22 -56 -21 -1
2 0 18 2 36 6 36 10 37 68 20z"/>
<path d="M2692 2998 c3 -7 38 -26 79 -42 62 -24 89 -29 169 -30 93 -1 138 14
63 21 -65 6 -200 33 -244 48 -51 18 -72 19 -67 3z"/>
<path d="M1450 2904 c-52 -24 -128 -54 -167 -66 -90 -26 -95 -43 -11 -35 65 6
193 62 253 111 50 41 24 38 -75 -10z"/>
<path d="M2390 2620 c0 -13 26 -41 70 -77 84 -69 110 -115 110 -195 0 -67 -27
-107 -90 -132 -45 -18 -51 -33 -18 -45 28 -10 84 2 117 26 63 48 88 185 47
262 -26 50 -96 113 -164 149 -70 38 -72 38 -72 12z"/>
<path d="M2269 2386 c-73 -26 -128 -82 -144 -147 -11 -43 12 -44 56 -4 l41 37
83 -7 c130 -11 196 22 164 82 -27 50 -119 68 -200 39z"/>
<path d="M1690 2330 c-44 -44 -7 -100 79 -119 29 -6 59 -11 67 -11 8 0 32 -10
53 -22 35 -20 71 -20 71 1 0 5 -15 31 -32 57 -63 93 -189 143 -238 94z"/>
<path d="M2420 1988 c0 -6 10 -22 21 -34 12 -13 27 -49 33 -81 13 -66 41 -85
51 -36 15 69 21 71 45 19 21 -46 24 -48 36 -31 8 10 14 33 14 50 0 34 -40 99
-71 115 -17 10 -21 8 -26 -9 -7 -26 -10 -26 -48 -1 -34 22 -55 26 -55 8z"/>
<path d="M2635 1928 c18 -40 39 -92 46 -115 14 -49 26 -55 35 -18 11 46 -71
205 -106 205 -5 0 6 -33 25 -72z"/>
<path d="M2374 1928 c1 -67 15 -83 40 -46 21 30 20 71 -2 91 -32 29 -39 20
-38 -45z"/>
<path d="M1816 1945 c-36 -39 -50 -80 -40 -117 19 -64 38 -46 64 57 7 28 14
58 17 68 8 25 -14 21 -41 -8z"/>
<path d="M2730 1968 c0 -2 7 -25 15 -52 8 -27 15 -65 15 -85 0 -20 5 -43 10
-51 9 -13 12 -12 25 4 8 11 15 28 15 38 0 29 15 21 43 -21 19 -28 31 -38 45
-34 15 3 21 -4 31 -37 7 -23 13 -60 13 -82 0 -22 6 -42 13 -44 33 -13 105 96
105 158 0 68 -104 200 -145 184 -13 -5 -14 -10 -4 -28 l12 -23 -24 22 c-16 15
-29 19 -38 13 -12 -7 -12 -12 3 -34 24 -37 12 -32 -60 24 -56 44 -74 56 -74
48z m274 -224 c9 -25 7 -64 -4 -64 -5 0 -10 4 -10 9 0 5 -3 23 -6 40 -7 32 9
44 20 15z"/>
<path d="M1893 1945 c-15 -29 -24 -90 -17 -109 8 -20 30 -21 38 0 8 21 6 84
-3 109 -8 19 -8 19 -18 0z"/>
<path d="M1725 1920 c-10 -11 -24 -20 -31 -20 -31 0 -26 -125 6 -145 16 -10
17 -8 35 78 9 43 19 85 22 93 8 21 -11 17 -32 -6z"/>
<path d="M2370 1162 c0 -30 31 -112 42 -112 12 0 5 62 -12 104 -11 30 -30 35
-30 8z"/>
<path d="M2232 1138 c-6 -8 -12 -38 -14 -68 l-3 -55 30 0 c30 0 30 0 28 55 -3
59 -22 91 -41 68z"/>
</g>
</svg>
